<svg xmlns="http://www.w3.org/2000/svg" style="display:none" aria-hidden="true">
  <symbol id="cat-icon-air-vent" viewBox="0 0 24 24" fill="none" stroke="currentColor" stroke-width="2" stroke-linecap="round" stroke-linejoin="round">
    <path d="M18 17.5a2.5 2.5 0 1 1-4-2.45V12"/>
    <path d="M6 6.5a2.5 2.5 0 1 0 4 2.45V12"/>
    <path d="M18 6.5a2.5 2.5 0 1 0-4 2.45"/>
    <path d="M6 17.5a2.5 2.5 0 1 1 4-2.45"/>
  </symbol>
  <symbol id="cat-icon-bath" viewBox="0 0 24 24" fill="none" stroke="currentColor" stroke-width="2" stroke-linecap="round" stroke-linejoin="round">
    <path d="M10 4 8 6"/>
    <path d="M14 4l2 2"/>
    <path d="M3 10h18"/>
    <path d="M5 14v4a2 2 0 0 0 2 2h10a2 2 0 0 0 2-2v-4"/>
  </symbol>
  <symbol id="cat-icon-battery-charging" viewBox="0 0 24 24" fill="none" stroke="currentColor" stroke-width="2" stroke-linecap="round" stroke-linejoin="round">
    <path d="M15 7h2a2 2 0 0 1 2 2v6a2 2 0 0 1-2 2h-2"/>
    <path d="M6 7H4a2 2 0 0 0-2 2v6a2 2 0 0 0 2 2h2"/>
    <path d="M11 7V4a1 1 0 0 0-1-1H8a1 1 0 0 0-1 1v3"/>
    <path d="M13 7V4a1 1 0 0 1 1-1h2a1 1 0 0 1 1 1v3"/>
    <path d="M11 11h1l-2 3h2l-2 3"/>
  </symbol>
  <symbol id="cat-icon-bed" viewBox="0 0 24 24" fill="none" stroke="currentColor" stroke-width="2" stroke-linecap="round" stroke-linejoin="round">
    <path d="M2 20v-8a2 2 0 0 1 2-2h16a2 2 0 0 1 2 2v8"/>
    <path d="M4 10V6a2 2 0 0 1 2-2h12a2 2 0 0 1 2 2v4"/>
    <path d="M12 4v6"/>
    <path d="M2 18h20"/>
  </symbol>
  <symbol id="cat-icon-blinds" viewBox="0 0 24 24" fill="none" stroke="currentColor" stroke-width="2" stroke-linecap="round" stroke-linejoin="round">
    <path d="M3 3h18"/>
    <path d="M20 7H4"/>
    <path d="M20 11H4"/>
    <path d="M20 15H4"/>
    <path d="M20 19H4"/>
  </symbol>
  <symbol id="cat-icon-box" viewBox="0 0 24 24" fill="none" stroke="currentColor" stroke-width="2" stroke-linecap="round" stroke-linejoin="round">
    <path d="M21 8a2 2 0 0 0-1-1.73l-7-4a2 2 0 0 0-2 0l-7 4A2 2 0 0 0 3 8v8a2 2 0 0 0 1 1.73l7 4a2 2 0 0 0 2 0l7-4A2 2 0 0 0 21 16Z"/>
    <path d="M3.3 7.7 12 12l8.7-4.3"/>
    <path d="M12 22V12"/>
  </symbol>
  <symbol id="cat-icon-building-2" viewBox="0 0 24 24" fill="none" stroke="currentColor" stroke-width="2" stroke-linecap="round" stroke-linejoin="round">
    <path d="M6 22V4a2 2 0 0 1 2-2h8a2 2 0 0 1 2 2v18Z"/>
    <path d="M6 12H4a2 2 0 0 0-2 2v6a2 2 0 0 0 2 2h2"/>
    <path d="M18 9h2a2 2 0 0 1 2 2v9a2 2 0 0 1-2 2h-2"/>
    <path d="M10 6h4"/>
    <path d="M10 10h4"/>
    <path d="M10 14h4"/>
    <path d="M10 18h4"/>
  </symbol>
  <symbol id="cat-icon-camera" viewBox="0 0 24 24" fill="none" stroke="currentColor" stroke-width="2" stroke-linecap="round" stroke-linejoin="round">
    <path d="M14.5 4h-5L7 7H4a2 2 0 0 0-2 2v9a2 2 0 0 0 2 2h16a2 2 0 0 0 2-2V9a2 2 0 0 0-2-2h-3l-2.5-3z"/>
    <path d="M12 17a4 4 0 1 0 0-8 4 4 0 0 0 0 8z"/>
  </symbol>
  <symbol id="cat-icon-car" viewBox="0 0 24 24" fill="none" stroke="currentColor" stroke-width="2" stroke-linecap="round" stroke-linejoin="round">
    <path d="M19 17h2c.6 0 1-.4 1-1v-3c0-.9-.7-1.7-1.5-1.9C18.7 10.6 16 10 16 10s-1.3-1.4-2.2-2.3c-.5-.4-1.1-.7-1.8-.7H5c-.6 0-1.1.4-1.4.9l-1.4 2.9A3.7 3.7 0 0 0 2 12v4c0 .6.4 1 1 1h2"/>
    <path d="M7 17h10"/>
    <path d="M7 11h10"/>
  </symbol>
  <symbol id="cat-icon-circle-dot" viewBox="0 0 24 24" fill="none" stroke="currentColor" stroke-width="2" stroke-linecap="round" stroke-linejoin="round">
    <path d="M12 2v2"/>
    <path d="M12 20v2"/>
    <path d="m4.93 4.93 1.41 1.41"/>
    <path d="m13.66 13.66 1.41 1.41"/>
    <path d="M2 12h2"/>
    <path d="M20 12h2"/>
    <path d="m6.34 17.66-1.41 1.41"/>
    <path d="m10.93 7.76-1.41-1.41"/>
    <path d="M12 8a4 4 0 1 0 0 8 4 4 0 0 0 0-8z"/>
    <path d="M12 12h.01"/>
  </symbol>
  <symbol id="cat-icon-cooking-pot" viewBox="0 0 24 24" fill="none" stroke="currentColor" stroke-width="2" stroke-linecap="round" stroke-linejoin="round">
    <path d="M2 12h20"/>
    <path d="M4 12v8a2 2 0 0 0 2 2h12a2 2 0 0 0 2-2v-8"/>
    <path d="M8 12V4"/>
    <path d="M16 12V4"/>
    <path d="M8 4h8"/>
  </symbol>
  <symbol id="cat-icon-door-open" viewBox="0 0 24 24" fill="none" stroke="currentColor" stroke-width="2" stroke-linecap="round" stroke-linejoin="round">
    <path d="M13 4h3a2 2 0 0 1 2 2v14"/>
    <path d="M2 20h15"/>
    <path d="M11 20v-16"/>
    <path d="M7 12h.01"/>
  </symbol>
  <symbol id="cat-icon-droplets" viewBox="0 0 24 24" fill="none" stroke="currentColor" stroke-width="2" stroke-linecap="round" stroke-linejoin="round">
    <path d="M7 16.3c2.2 0 4-1.83 4-4.05 0-1.16-.57-2.26-1.71-3.19S7.29 6.75 7 5.3c-.29 1.45-1.14 2.84-2.29 3.76S3 11.1 3 12.25c0 2.22 1.8 4.05 4 4.05z"/>
    <path d="M12.56 6.6A10.9 10.9 0 0 0 17 3.77c-.19 1.08-.77 2.12-1.68 2.97-.9.85-2.06 1.48-3.32 1.85"/>
  </symbol>
  <symbol id="cat-icon-fan" viewBox="0 0 24 24" fill="none" stroke="currentColor" stroke-width="2" stroke-linecap="round" stroke-linejoin="round">
    <path d="M10 12H3"/>
    <path d="M14 12h7"/>
    <path d="M12 3v7"/>
    <path d="M12 14v7"/>
    <path d="M5.6 5.6l4.2 4.2"/>
    <path d="M18.4 5.6l-4.2 4.2"/>
    <path d="M5.6 18.4l4.2-4.2"/>
    <path d="M18.4 18.4l-4.2-4.2"/>
  </symbol>
  <symbol id="cat-icon-flower-2" viewBox="0 0 24 24" fill="none" stroke="currentColor" stroke-width="2" stroke-linecap="round" stroke-linejoin="round">
    <path d="M12 12a3 3 0 1 0 0-6 3 3 0 0 0 0 6Z"/>
    <path d="M12 12v10"/>
    <path d="M12 2v2"/>
    <path d="M4.93 4.93l1.41 1.41"/>
    <path d="M2 12h2"/>
    <path d="M12 2a15.3 15.3 0 0 1 4 10 15.3 15.3 0 0 1-4 10 15.3 15.3 0 0 1-4-10 15.3 15.3 0 0 1 4-10z"/>
  </symbol>
  <symbol id="cat-icon-folder" viewBox="0 0 24 24" fill="none" stroke="currentColor" stroke-width="2" stroke-linecap="round" stroke-linejoin="round">
    <path d="M20 20a2 2 0 0 0 2-2V8a2 2 0 0 0-2-2h-7.9a2 2 0 0 1-1.69-.9L9.6 3.9A2 2 0 0 0 7.93 3H4a2 2 0 0 0-2 2v13a2 2 0 0 0 2 2Z"/>
  </symbol>
  <symbol id="cat-icon-garage" viewBox="0 0 24 24" fill="none" stroke="currentColor" stroke-width="2" stroke-linecap="round" stroke-linejoin="round">
    <path d="M12 22v-5"/>
    <path d="M9 8V4h6v4"/>
    <path d="M4 22V12l8-6 8 6v10"/>
    <path d="M2 22h20"/>
  </symbol>
  <symbol id="cat-icon-heart" viewBox="0 0 24 24" fill="none" stroke="currentColor" stroke-width="2" stroke-linecap="round" stroke-linejoin="round">
    <path d="M2 9.5a5.5 5.5 0 0 1 9.591-3.676.56.56 0 0 0 .818 0A5.49 5.49 0 0 1 22 9.5c0 2.29-1.5 4-3 5.5l-5.492 5.313a2 2 0 0 1-3 .019L5 15c-1.5-1.5-3-3.2-3-5.5"/>
  </symbol>
  <symbol id="cat-icon-home" viewBox="0 0 24 24" fill="none" stroke="currentColor" stroke-width="2" stroke-linecap="round" stroke-linejoin="round">
    <path d="M15 21v-8a1 1 0 0 0-1-1h-4a1 1 0 0 0-1 1v8"/>
    <path d="M3 10a2 2 0 0 1 .709-1.528l7-6a2 2 0 0 1 2.582 0l7 6A2 2 0 0 1 21 10v9a2 2 0 0 1-2 2H5a2 2 0 0 1-2-2z"/>
  </symbol>
  <symbol id="cat-icon-key" viewBox="0 0 24 24" fill="none" stroke="currentColor" stroke-width="2" stroke-linecap="round" stroke-linejoin="round">
    <path d="M10 2h4"/>
    <path d="M12 14v8"/>
    <path d="M4 14a8 8 0 0 1 16 0"/>
    <path d="M12 14a4 4 0 1 1-4-4"/>
  </symbol>
  <symbol id="cat-icon-lamp" viewBox="0 0 24 24" fill="none" stroke="currentColor" stroke-width="2" stroke-linecap="round" stroke-linejoin="round">
    <path d="M12 12v6"/>
    <path d="M12 6V4"/>
    <path d="M8 22h8"/>
    <path d="M5 12H2a1 1 0 0 1-1-1V8a1 1 0 0 1 1-1h3"/>
    <path d="M22 12h-3a1 1 0 0 1-1-1V8a1 1 0 0 1 1-1h3"/>
  </symbol>
  <symbol id="cat-icon-lamp-ceiling" viewBox="0 0 24 24" fill="none" stroke="currentColor" stroke-width="2" stroke-linecap="round" stroke-linejoin="round">
    <path d="M12 2v5"/>
    <path d="M8 7h8"/>
    <path d="M12 22v-5"/>
    <path d="M8 17h8"/>
    <path d="M6 12H4a2 2 0 0 1-2-2V8a2 2 0 0 1 2-2h2"/>
    <path d="M20 12h2a2 2 0 0 0 2-2V8a2 2 0 0 0-2-2h-2"/>
  </symbol>
  <symbol id="cat-icon-layers" viewBox="0 0 24 24" fill="none" stroke="currentColor" stroke-width="2" stroke-linecap="round" stroke-linejoin="round">
    <path d="M12.83 2.18a2 2 0 0 0-1.66 0L2.6 6.08a1 1 0 0 0 0 1.83l8.58 3.91a2 2 0 0 0 1.66 0l8.58-3.9a1 1 0 0 0 0-1.83Z"/>
    <path d="M2 12a1 1 0 0 0 .58.91l8.6 3.91a2 2 0 0 0 1.64 0l8.58-3.9A1 1 0 0 0 22 12"/>
    <path d="M2 17a1 1 0 0 0 .58.91l8.6 3.91a2 2 0 0 0 1.64 0l8.58-3.9A1 1 0 0 0 22 17"/>
  </symbol>
  <symbol id="cat-icon-lightbulb" viewBox="0 0 24 24" fill="none" stroke="currentColor" stroke-width="2" stroke-linecap="round" stroke-linejoin="round">
    <path d="M15 14c.2-1 .7-1.7 1.5-2.5 1-.9 1.5-2.2 1.5-3.5A6 6 0 0 0 6 8c0 1 .2 2.2 1.5 3.5.7.7 1.3 1.5 1.5 2.5"/>
    <path d="M9 18h6"/>
    <path d="M10 22h4"/>
  </symbol>
  <symbol id="cat-icon-lock" viewBox="0 0 24 24" fill="none" stroke="currentColor" stroke-width="2" stroke-linecap="round" stroke-linejoin="round">
    <path d="M12 17v-2"/>
    <path d="M8 11V7a4 4 0 1 1 8 0v4"/>
    <path d="M5 11h14a2 2 0 0 1 2 2v7a2 2 0 0 1-2 2H5a2 2 0 0 1-2-2v-7a2 2 0 0 1 2-2z"/>
  </symbol>
  <symbol id="cat-icon-moon" viewBox="0 0 24 24" fill="none" stroke="currentColor" stroke-width="2" stroke-linecap="round" stroke-linejoin="round">
    <path d="M20 14.66A9 9 0 0 1 9.34 4 7 7 0 1 0 20 14.66z"/>
  </symbol>
  <symbol id="cat-icon-package" viewBox="0 0 24 24" fill="none" stroke="currentColor" stroke-width="2" stroke-linecap="round" stroke-linejoin="round">
    <path d="M11 21.73a2 2 0 0 0 2 0l7-4A2 2 0 0 0 21 16V8a2 2 0 0 0-1-1.73l-7-4a2 2 0 0 0-2 0l-7 4A2 2 0 0 0 3 8v8a2 2 0 0 0 1 1.73z"/>
    <path d="M12 22V12"/>
    <path d="M3.3 7.7 12 12l8.7-4.3"/>
    <path d="M7.5 4.3l9 4.5"/>
  </symbol>
  <symbol id="cat-icon-plug" viewBox="0 0 24 24" fill="none" stroke="currentColor" stroke-width="2" stroke-linecap="round" stroke-linejoin="round">
    <path d="M12 22v-5"/>
    <path d="M9 8V2"/>
    <path d="M15 8V2"/>
    <path d="M6 12H4a2 2 0 0 0-2 2v2a2 2 0 0 0 2 2h2"/>
    <path d="M18 12h2a2 2 0 0 0 2-2v-2a2 2 0 0 0-2-2h-2"/>
    <path d="M8 12h8"/>
  </symbol>
  <symbol id="cat-icon-refrigerator" viewBox="0 0 24 24" fill="none" stroke="currentColor" stroke-width="2" stroke-linecap="round" stroke-linejoin="round">
    <path d="M5 3a2 2 0 0 0-2 2v14a2 2 0 0 0 2 2h14a2 2 0 0 0 2-2V5a2 2 0 0 0-2-2H5Z"/>
    <path d="M5 10h14"/>
    <path d="M9 6h.01"/>
    <path d="M9 14h.01"/>
  </symbol>
  <symbol id="cat-icon-router" viewBox="0 0 24 24" fill="none" stroke="currentColor" stroke-width="2" stroke-linecap="round" stroke-linejoin="round">
    <path d="M12 20h.01"/>
    <path d="M12 16v4"/>
    <path d="M12 8v4"/>
    <path d="M12 4v4"/>
    <path d="M4 12h2"/>
    <path d="M18 12h2"/>
    <path d="M6 8.5 8 10"/>
    <path d="M18 8.5 16 10"/>
    <path d="M6 15.5 8 14"/>
    <path d="M18 15.5 16 14"/>
  </symbol>
  <symbol id="cat-icon-scan-qr" viewBox="0 0 24 24" fill="none" stroke="currentColor" stroke-width="2" stroke-linecap="round" stroke-linejoin="round">
    <path d="M3 7V5a2 2 0 0 1 2-2h2"/>
    <path d="M17 3h2a2 2 0 0 1 2 2v2"/>
    <path d="M21 17v2a2 2 0 0 1-2 2h-2"/>
    <path d="M7 21H5a2 2 0 0 1-2-2v-2"/>
    <path d="M7 12h.01"/>
    <path d="M12 12h.01"/>
    <path d="M17 12h.01"/>
    <path d="M12 17h.01"/>
  </symbol>
  <symbol id="cat-icon-settings" viewBox="0 0 24 24" fill="none" stroke="currentColor" stroke-width="2" stroke-linecap="round" stroke-linejoin="round">
    <path d="M9.671 4.136a2.34 2.34 0 0 1 4.659 0 2.34 2.34 0 0 0 3.319 1.915 2.34 2.34 0 0 1 2.33 4.033 2.34 2.34 0 0 0 0 3.831 2.34 2.34 0 0 1-2.33 4.033 2.34 2.34 0 0 0-3.319 1.915 2.34 2.34 0 0 1-4.659 0 2.34 2.34 0 0 0-3.32-1.915 2.34 2.34 0 0 1-2.33-4.033 2.34 2.34 0 0 0 0-3.831A2.34 2.34 0 0 1 6.35 6.051a2.34 2.34 0 0 0 3.319-1.915"/>
    <path d="M12 15a3 3 0 1 0 0-6 3 3 0 0 0 0 6z"/>
  </symbol>
  <symbol id="cat-icon-shield" viewBox="0 0 24 24" fill="none" stroke="currentColor" stroke-width="2" stroke-linecap="round" stroke-linejoin="round">
    <path d="M20 13c0 5-3.5 7.5-7.66 8.95a1 1 0 0 1-.67-.01C7.5 20.5 4 18 4 13V6a1 1 0 0 1 1-1c2 0 4.5-1.2 6.24-2.72a1.17 1.17 0 0 1 1.52 0C14.51 3.81 17 5 19 5a1 1 0 0 1 1 1z"/>
  </symbol>
  <symbol id="cat-icon-sofa" viewBox="0 0 24 24" fill="none" stroke="currentColor" stroke-width="2" stroke-linecap="round" stroke-linejoin="round">
    <path d="M20 9V6a2 2 0 0 0-2-2H6a2 2 0 0 0-2 2v3"/>
    <path d="M2 11v5a2 2 0 0 0 2 2h16a2 2 0 0 0 2-2v-5a2 2 0 0 0-4 0v2H6v-2a2 2 0 0 0-4 0Z"/>
    <path d="M4 18v2"/>
    <path d="M20 18v2"/>
  </symbol>
  <symbol id="cat-icon-speaker" viewBox="0 0 24 24" fill="none" stroke="currentColor" stroke-width="2" stroke-linecap="round" stroke-linejoin="round">
    <path d="M8 9v6"/>
    <path d="M19.5 12A6.5 6.5 0 0 0 12 5.5v13a6.5 6.5 0 0 0 7.5-6.5Z"/>
    <path d="M5 9v6"/>
  </symbol>
  <symbol id="cat-icon-star" viewBox="0 0 24 24" fill="none" stroke="currentColor" stroke-width="2" stroke-linecap="round" stroke-linejoin="round">
    <path d="M11.525 2.295a.53.53 0 0 1 .95 0l2.31 4.679a2.123 2.123 0 0 0 1.595 1.16l5.166.756a.53.53 0 0 1 .294.904l-3.736 3.638a2.123 2.123 0 0 0-.611 1.878l.882 5.14a.53.53 0 0 1-.771.56l-4.618-2.428a2.122 2.122 0 0 0-1.973 0L6.396 21.01a.53.53 0 0 1-.77-.56l.881-5.139a2.122 2.122 0 0 0-.611-1.879L2.16 9.795a.53.53 0 0 1 .294-.906l5.165-.755a2.122 2.122 0 0 0 1.597-1.16z"/>
  </symbol>
  <symbol id="cat-icon-sun" viewBox="0 0 24 24" fill="none" stroke="currentColor" stroke-width="2" stroke-linecap="round" stroke-linejoin="round">
    <path d="M12 2v2"/>
    <path d="M12 20v2"/>
    <path d="m4.93 4.93 1.41 1.41"/>
    <path d="m13.66 13.66 1.41 1.41"/>
    <path d="M2 12h2"/>
    <path d="M20 12h2"/>
    <path d="m6.34 17.66-1.41 1.41"/>
    <path d="m10.93 7.76-1.41-1.41"/>
    <path d="M12 8a4 4 0 1 0 0 8 4 4 0 0 0 0-8z"/>
  </symbol>
  <symbol id="cat-icon-tag" viewBox="0 0 24 24" fill="none" stroke="currentColor" stroke-width="2" stroke-linecap="round" stroke-linejoin="round">
    <path d="M12.586 2.586A2 2 0 0 0 11.172 2H4a2 2 0 0 0-2 2v7.172a2 2 0 0 0 .586 1.414l8.704 8.704a2.426 2.426 0 0 0 3.42 0l6.58-6.58a2.426 2.426 0 0 0 0-3.42z"/>
    <path d="M7 7h.01"/>
  </symbol>
  <symbol id="cat-icon-thermometer" viewBox="0 0 24 24" fill="none" stroke="currentColor" stroke-width="2" stroke-linecap="round" stroke-linejoin="round">
    <path d="M14 4v10.54a4 4 0 1 1-4 0V4a2 2 0 0 1 4 0Z"/>
  </symbol>
  <symbol id="cat-icon-toggle-right" viewBox="0 0 24 24" fill="none" stroke="currentColor" stroke-width="2" stroke-linecap="round" stroke-linejoin="round">
    <path d="M22 12a10 10 0 1 1-10-10"/>
    <path d="M12 2v10l4.24 4.24"/>
  </symbol>
  <symbol id="cat-icon-tree-pine" viewBox="0 0 24 24" fill="none" stroke="currentColor" stroke-width="2" stroke-linecap="round" stroke-linejoin="round">
    <path d="M12 22v-4"/>
    <path d="M5 12h14"/>
    <path d="M12 6v4"/>
    <path d="M7 10h10"/>
    <path d="M12 2v4"/>
    <path d="M9 6h6"/>
  </symbol>
  <symbol id="cat-icon-tv" viewBox="0 0 24 24" fill="none" stroke="currentColor" stroke-width="2" stroke-linecap="round" stroke-linejoin="round">
    <path d="M7 21h10"/>
    <path d="M20 3H4a1 1 0 0 0-1 1v12a1 1 0 0 0 1 1h16a1 1 0 0 0 1-1V4a1 1 0 0 0-1-1z"/>
  </symbol>
  <symbol id="cat-icon-washing-machine" viewBox="0 0 24 24" fill="none" stroke="currentColor" stroke-width="2" stroke-linecap="round" stroke-linejoin="round">
    <path d="M3 6h18"/>
    <path d="M3 18h18"/>
    <path d="M3 6v12a2 2 0 0 0 2 2h14a2 2 0 0 0 2-2V6a2 2 0 0 0-2-2H5a2 2 0 0 0-2 2Z"/>
    <path d="M12 13a1 1 0 1 0 0-2 1 1 0 0 0 0 2Z"/>
  </symbol>
  <symbol id="cat-icon-wifi" viewBox="0 0 24 24" fill="none" stroke="currentColor" stroke-width="2" stroke-linecap="round" stroke-linejoin="round">
    <path d="M12 20h.01"/>
    <path d="M8.5 16.429a5 5 0 0 1 7 0"/>
    <path d="M5 12.859a10 10 0 0 1 14 0"/>
    <path d="M2 8.82a15 15 0 0 1 20 0"/>
  </symbol>
  <symbol id="cat-icon-wind" viewBox="0 0 24 24" fill="none" stroke="currentColor" stroke-width="2" stroke-linecap="round" stroke-linejoin="round">
    <path d="M17.7 7.7a2.5 2.5 0 1 1 1.8 4.3H2"/>
    <path d="M9.6 4.6A2 2 0 1 1 11 8H2"/>
    <path d="M12.6 19.4A2 2 0 1 0 14 16H2"/>
  </symbol>
  <symbol id="cat-icon-wrench" viewBox="0 0 24 24" fill="none" stroke="currentColor" stroke-width="2" stroke-linecap="round" stroke-linejoin="round">
    <path d="M14.7 6.3a1 1 0 0 0 0 1.4l1.6 1.6a1 1 0 0 0 1.4 0l3.77-3.77a6 6 0 0 1-7.94 7.94l-6.91 6.91a2.12 2.12 0 0 1-3-3l6.91-6.91a6 6 0 0 1 7.94-7.94l-3.76 3.76z"/>
  </symbol>
  <symbol id="cat-icon-zap" viewBox="0 0 24 24" fill="none" stroke="currentColor" stroke-width="2" stroke-linecap="round" stroke-linejoin="round">
    <path d="M4 14a1 1 0 0 1-.78-1.63l9.9-3.9a1 1 0 0 1 1.11.94l-.5 4.45a1 1 0 0 0 .78 1.14l4.45.5a1 1 0 0 1 .94 1.11l-3.9 9.9A1 1 0 0 1 14 20l.5-4.45a1 1 0 0 0-1.14-.78l-4.45-.5a1 1 0 0 1-1.11-.94L4 14z"/>
  </symbol>
</svg>
