<svg xmlns="http://www.w3.org/2000/svg" style="display:none" aria-hidden="true">
  <symbol id="rm-icon-vault" viewBox="0 0 24 24">
    <path d="M4 7h16v14H4z"/><path d="M8 7V5a2 2 0 0 1 2-2h4a2 2 0 0 1 2 2v2"/><path d="M12 12v4M10 14h4"/>
  </symbol>
  <symbol id="rm-icon-tag" viewBox="0 0 24 24">
    <path d="M20 12l-8 8-9-9V3h8l9 9z"/><circle cx="7.5" cy="7.5" r="1.25" fill="currentColor" stroke="none"/>
  </symbol>
  <symbol id="rm-icon-home" viewBox="0 0 24 24">
    <path d="M3 10.5 12 3l9 7.5"/><path d="M5 10v10h14V10"/>
  </symbol>
  <symbol id="rm-icon-cloud" viewBox="0 0 24 24">
    <path d="M18 10a4 4 0 0 0-7.8-1.2A3.5 3.5 0 1 0 6 17h11a3 3 0 0 0 1-6z"/>
  </symbol>
  <symbol id="rm-icon-sync" viewBox="0 0 24 24">
    <path d="M4 12a8 8 0 0 1 13.4-5.9"/><path d="M20 4v6h-6"/><path d="M20 12a8 8 0 0 1-13.4 5.9"/><path d="M4 20v-6h6"/>
  </symbol>
  <symbol id="rm-icon-export" viewBox="0 0 24 24">
    <path d="M12 3v12"/><path d="m7 10 5 5 5-5"/><path d="M5 21h14"/>
  </symbol>
  <symbol id="rm-icon-folder" viewBox="0 0 24 24">
    <path d="M4 7h5l2 2h9v9H4z"/><path d="M4 7V5h6l2 2"/>
  </symbol>
  <symbol id="rm-icon-shield" viewBox="0 0 24 24">
    <path d="M12 3 4 7v6c0 5 3.5 8 8 8s8-3 8-8V7l-8-4z"/>
  </symbol>
  <symbol id="rm-icon-sun" viewBox="0 0 24 24">
    <circle cx="12" cy="12" r="4"/><path d="M12 2v2M12 20v2M4.9 4.9l1.4 1.4M17.7 17.7l1.4 1.4M2 12h2M20 12h2M4.9 19.1l1.4-1.4M17.7 6.3l1.4-1.4"/>
  </symbol>
  <symbol id="rm-icon-moon" viewBox="0 0 24 24">
    <path d="M20 14.5A8.5 8.5 0 0 1 9.5 4 7 7 0 1 0 20 14.5z"/>
  </symbol>
  <symbol id="rm-icon-auto" viewBox="0 0 24 24">
    <rect x="3" y="5" width="18" height="12" rx="2"/><path d="M8 9h8M8 13h5"/>
  </symbol>
</svg>
