<svg xmlns="http://www.w3.org/2000/svg" viewBox="0 0 132 28" role="img" aria-label="matter">
  <g transform="translate(0 1) scale(0.102)" fill="#000">
    <path d="M128 18.3c-5.1 0-9.7 2.9-11.9 7.4L81 120.4c-2.2 4.5-6.8 7.4-11.9 7.4-10.2 0-18.5 8.3-18.5 18.5 0 3.9 1.2 7.6 3.2 10.7l-8.6 43.2c-1.8 9.1 4.2 17.8 13.3 19.6 1.4.3 2.9.4 4.3.4 10.8 0 19.7-8.4 20.9-19.1l2.5-24.7c.2-2.5 2.3-4.5 4.8-4.5s4.6 2 4.8 4.5l2.5 24.7c1.2 10.8 10.1 19.1 20.9 19.1 1.4 0 2.9-.1 4.3-.4 9.1-1.8 15.1-10.5 13.3-19.6l-8.6-43.2c2-3.1 3.2-6.8 3.2-10.7 0-10.2-8.3-18.5-18.5-18.5-5.1 0-9.7-2.9-11.9-7.4L139.9 25.7c-2.2-4.5-6.8-7.4-11.9-7.4h-.2z"/>
  </g>
  <text x="32" y="20" font-family="system-ui,-apple-system,BlinkMacSystemFont,'Segoe UI',Roboto,sans-serif" font-size="18" font-weight="500" fill="#000">matter</text>
</svg>
